<?xml version="1.0" encoding="utf-8"?>
<!-- Generator: Adobe Illustrator 19.0.0, SVG Export Plug-In . SVG Version: 6.00 Build 0)  -->
<svg version="1.1" id="layer" xmlns="http://www.w3.org/2000/svg" xmlns:xlink="http://www.w3.org/1999/xlink" x="0px" y="0px"
	 viewBox="-153 -46 652 652" style="enable-background:new -153 -46 652 652;" xml:space="preserve">
<style type="text/css">
	.st0{fill:#191919;}
	.st1{fill:#8C195F;}
	.st2{fill:#D72864;}
</style>
<path id="Pfad_79" class="st0" d="M78.6,178.9c-47.5-48-124.9-48.3-172.9-0.8S-142.6,303-95.1,351s124.9,48.3,172.9,0.8
	c0.1-0.1,0.3-0.3,0.4-0.4c22.1-22.1,60.7-52.7,60.7-86.4C139,231.4,100.5,201,78.6,178.9z M72.4,334.3C54.1,352.7,29.3,363,3.3,363
	c-3,0-6-0.2-9-0.4c-1.5-0.1-3-0.3-4.5-0.5c-3,0.4-5.9,0.7-9,0.8c-1.5,0.1-3,0.1-4.5,0.1c-54-0.4-97.5-44.4-97.1-98.5
	c0.4-53.5,43.6-96.8,97.1-97.1c1.5,0,3,0,4.5,0.1c3,0.1,6,0.4,9,0.8c1.5-0.2,3-0.4,4.5-0.5c3-0.3,6-0.4,9-0.4
	c26.1,0,51.1,10.4,69.4,29c17.5,17.7,48.3,42,48.3,68.9C121,292.1,90.1,316.6,72.4,334.3z"/>
<path id="Pfad_80" class="st1" d="M72.7,196.3c-18.3-18.5-43.3-29-69.4-29c-4.5-0.1-9,0.2-13.5,1c23.5,2.2,49.2,12.1,64.9,28
	c17.5,17.7,48.3,42,48.3,68.9c0,27-30.9,51.4-48.6,69.1c-18,18-41.2,25.6-64.6,27.7c4.5,0.7,9,1,13.5,1c25.9,0,50.8-10.3,69.1-28.7
	c17.7-17.7,48.6-42.2,48.6-69.1C121,238.3,90.2,214,72.7,196.3z"/>
<path id="Pfad_81" class="st2" d="M-10.2,168.3c21.2,2.9,40.9,12.8,55.9,28c17.5,17.7,48.3,42,48.3,68.9c0,27-30.9,51.4-48.6,69.1
	c-15,15.1-34.6,24.8-55.6,27.7l0,0c23.1-2,47-9.8,64.6-27.7s48.6-42.2,48.6-69.1c0-26.8-30.8-51.2-48.3-68.9
	C39,180.4,13.4,170.5-10.2,168.3"/>
<path id="Pfad_82" class="st1" d="M-112.4,265.2c0-52.4,42.1-95.4,102.3-96.9c-4.5-0.6-9-1-13.5-1c-54,0.4-97.5,44.4-97.1,98.5
	c0.4,53.5,43.6,96.8,97.1,97.1c4.5,0.2,9-0.1,13.5-1C-61.8,363.4-112.4,317.6-112.4,265.2z"/>
<path id="Pfad_83" class="st2" d="M-94.5,265.2c-0.1-48.8,36-90.2,84.3-96.9l0,0c-60.1,1.4-102.3,44.4-102.3,96.9
	s50.5,98.3,102.3,96.9l0,0C-58.5,355.3-94.4,314-94.5,265.2z"/>
<path class="st0" d="M206.2,224.8c-21.5,0-39,17.5-39,39c0,21.5,17.5,39,39,39c21.5,0,39-17.5,39-39c0-0.2,0-0.4,0-0.5
	c0.1-21.2-17-38.4-38.2-38.5C206.7,224.8,206.5,224.8,206.2,224.8z M206.2,291.2c-14.7-0.4-26.2-12.7-25.8-27.4c0-0.2,0-0.3,0-0.5
	c-0.4-14.2,10.8-26.1,25-26.5c14.2-0.4,26.1,10.8,26.5,25c0,0.5,0,1,0,1.5c0.7,14.7-10.6,27.2-25.3,27.9
	C206.5,291.2,206.4,291.2,206.2,291.2z M287.9,258.4c-7.7-3.2-14.4-6-14.4-12.1c0-5.5,5.2-9.7,12.1-9.7c6.1,0.2,12,2.5,16.8,6.4
	l5.5-10.4c-6.2-5.2-14.1-8-22.2-7.8c-14.3,0-25.1,9.3-25.1,21.7c0,13,11.3,17.9,21.3,22.2c7.9,3.4,14.8,6.4,14.8,12.6
	c0,6.8-5.8,9.8-11.6,9.8c-7-0.3-13.8-3.1-19-7.8l-6.9,9.6c7,6.5,16.2,10.1,25.7,10c14.5,0,24.7-9,24.7-21.9
	C309.5,267.3,298,262.6,287.9,258.4z M373,226.1H324v10.6h18.4v64.9h12v-64.9H373L373,226.1z M172,347.5c0-8.7,4.8-15.1,13.5-15.1
	c8.6,0,12.8,6.4,12.8,14.5c0,9.5-4.6,15.7-13.3,15.7C176.1,362.6,172,356.2,172,347.5z M195.5,347.3c0-8.1-4-12.5-10-12.5
	c-6.1,0-10.6,4.5-10.6,12.7s4.2,12.7,10.3,12.7C191.2,360.2,195.5,356,195.5,347.3L195.5,347.3z M217.9,347.3l-2.7,0.3
	c-0.5-2.7-1.3-4.2-4.7-4.2c-3.6,0-4.4,1.6-4.4,3.3c0,2.4,1.8,3,4.9,3.7c3.8,0.9,7.2,1.7,7.2,6.2c0,3.6-2.7,5.9-7.7,5.9
	c-4.5,0-7.4-1.7-8-6.2l2.6-0.4c0.2,2.6,2.5,4.6,5.2,4.4c0.1,0,0.2,0,0.4,0c2.7,0,4.8-0.8,4.8-3.4c0-2.4-1.7-2.9-4.7-3.7
	c-3.4-0.9-7.5-1.4-7.5-6.1c0-4,3.4-5.9,7.3-5.9c3.5-0.5,6.7,1.9,7.2,5.4C217.8,346.8,217.9,347.1,217.9,347.3z M234.3,361.3
	c-1.4,0.8-3,1.3-4.7,1.3c-2.6,0.4-5.1-1.3-5.5-3.9c-0.1-0.5-0.1-1,0-1.6v-13.3h-3.2v-2.3h3.2v-5.9l2.7-0.4v6.3h5.8v2.3h-5.8v12.9
	c0,2.3,0.5,3.7,3.2,3.7c1.3-0.1,2.6-0.4,3.7-1L234.3,361.3z M252.1,347.3l-2.7,0.3c-0.5-2.7-1.3-4.2-4.7-4.2c-3.6,0-4.4,1.6-4.4,3.3
	c0,2.4,1.8,3,4.9,3.7c3.8,0.9,7.2,1.7,7.2,6.2c0,3.6-2.7,5.9-7.7,5.9c-4.5,0-7.4-1.7-8-6.2l2.6-0.4c0.2,2.6,2.5,4.6,5.2,4.4
	c0.1,0,0.2,0,0.4,0c2.7,0,4.8-0.8,4.8-3.4c0-2.4-1.7-2.9-4.7-3.7c-3.4-0.9-7.5-1.4-7.5-6.1c0-4,3.4-5.9,7.3-5.9
	c3.5-0.5,6.7,1.9,7.2,5.4C252.1,346.8,252.1,347.1,252.1,347.3z M256.8,352c0-7.2,3.6-10.8,9.8-10.8c3.8-0.4,7.2,2.4,7.5,6.3
	c0,0.2,0,0.4,0,0.6l-2.7,0.4c-0.4-3.3-1.9-4.9-5.1-4.9c-3.2,0-6.7,1.8-6.7,8.1c0,6.8,3.3,8.6,6.7,8.6c2.7,0.3,5.1-1.6,5.4-4.3
	c0-0.1,0-0.2,0-0.2l2.6,0.5c-0.6,4-4.2,6.8-8.2,6.4C259.3,362.6,256.8,358.2,256.8,352z M296.7,362.1H294v-13.6c0-3.1-1.1-5-4.3-5
	c-2.6,0.2-5,1.2-6.9,2.9v15.7h-2.7v-30.4h2.7v12.4c2.1-1.8,4.8-2.8,7.6-2.9c4.4,0,6.3,2.5,6.3,7.1V362.1z M307,362.1l-6.7-20.6h2.8
	l5.5,17.8l4.9-17.8h3l4.8,17.8l5.5-17.8h2.6l-6.5,20.6h-3.3l-4.7-17.6l-4.7,17.6H307z M332.2,351.8c-0.8-5.1,2.7-9.8,7.8-10.6
	c0.6-0.1,1.2-0.1,1.8-0.1c5.7,0,8,3.8,8,8.7c0,0.8-0.1,1.7-0.2,2.5h-14.5c0.2,6.2,3,7.8,6.7,7.8c2.5,0.4,4.8-1.4,5.2-3.9
	c0,0,0,0,0,0l2.6,0.5c-0.8,3.7-4.2,6.2-8,5.8C334.3,362.6,332.2,357.5,332.2,351.8z M346.9,350.2c0.1-4.2-1.5-6.7-5.4-6.7
	c-3.5-0.1-6.4,2.6-6.5,6.1c0,0.2,0,0.4,0,0.6H346.9z M357.3,336.5c-1.2,0-2.1-1-2.1-2.2c0-1.2,1-2.1,2.2-2.1c1.2,0,2.1,1,2.1,2.1
	c0.1,1.1-0.7,2-1.8,2.1C357.6,336.6,357.4,336.6,357.3,336.5z M358.6,362.1h-2.7v-20.6h2.7V362.1z M366.7,359.9h12.9v2.3h-16.1v-1.9
	l12.5-16.4h-12.3v-2.3h15.5v1.9L366.7,359.9z M382.5,351.8c-0.8-5.1,2.7-9.8,7.8-10.6c0.6-0.1,1.2-0.1,1.8-0.1c5.7,0,8,3.8,8,8.7
	c0,0.8-0.1,1.7-0.2,2.5h-14.5c0.2,6.2,3,7.8,6.7,7.8c2.5,0.4,4.8-1.4,5.2-3.9c0,0,0,0,0,0l2.6,0.5c-0.8,3.7-4.2,6.2-8,5.8
	C384.6,362.6,382.5,357.5,382.5,351.8z M397.2,350.2c0.1-4.2-1.5-6.7-5.4-6.7c-3.5-0.1-6.4,2.6-6.5,6.1c0,0.2,0,0.4,0,0.6H397.2z
	 M416.3,344c-2.7-0.3-5.4,0.5-7.5,2.4v15.8h-2.7v-20.6h2.2l0.2,2.9c1.6-2.3,4.3-3.5,7-3.3h0.6L416.3,344z M176.7,408.8H174v-29.2
	h16.6v2.3h-13.9v11.4h12.8v2.4h-12.8V408.8z M208.7,405.5c0,1.1,0.2,1.6,1.3,1.6c0.4,0,0.9-0.1,1.3-0.2l0.2,1.7
	c-0.8,0.4-1.6,0.6-2.5,0.6c-1.3,0.1-2.5-0.9-2.7-2.2c0-0.1,0-0.3,0-0.4c-1.8,1.8-4.3,2.8-6.9,2.7c-2.9,0.4-5.6-1.6-6.1-4.5
	c-0.1-0.4-0.1-0.7-0.1-1.1c0-5.8,5.3-6.9,10-6.9c1.2,0,1.9,0,2.7,0.1v-2.1c0-3.1-0.9-4.8-4.5-4.8c-3.3,0-4.4,1.3-4.9,3.7l-2.6-0.4
	c0.6-3.8,3.2-5.4,7.6-5.4c4.9,0,7,1.9,7,7L208.7,405.5z M206,399.1c-0.8-0.1-1.7-0.1-2.6-0.1c-2.8,0-7.4,0.2-7.4,4.4
	c0,2,0.7,3.8,3.9,3.8c2.3-0.1,4.5-1.1,6-2.8L206,399.1z M214.5,398.6c0-7.2,3.6-10.8,9.8-10.8c3.8-0.4,7.2,2.4,7.5,6.3
	c0,0.2,0,0.4,0,0.6l-2.7,0.4c-0.4-3.3-1.9-4.9-5.1-4.9c-3.2,0-6.7,1.8-6.7,8.1c0,6.8,3.3,8.6,6.7,8.6c2.7,0.3,5.1-1.6,5.4-4.3
	c0-0.1,0-0.2,0-0.2l2.6,0.5c-0.6,4-4.2,6.8-8.2,6.4C217,409.3,214.5,404.9,214.5,398.6z M254.4,408.8h-2.7v-13.6c0-3.1-1.1-5-4.3-5
	c-2.6,0.2-5,1.2-6.9,2.9v15.7h-2.7v-30.4h2.7v12.4c2.2-1.8,4.8-2.8,7.6-2.9c4.4,0,6.3,2.5,6.3,7.1V408.8z M278.1,408.8h-2.7v-13.6
	c0-3.1-1.1-5-4.3-5c-2.6,0.2-5,1.2-6.9,2.9v15.7h-2.7v-30.4h2.7v12.4c2.2-1.8,4.8-2.8,7.6-2.9c4.4,0,6.3,2.5,6.3,7.1V408.8z
	 M283.8,398.6c-0.8-5.2,2.8-10,8-10.7c0.6-0.1,1.2-0.1,1.9-0.1c6.3,0,8.9,4.2,8.9,10.3c0,6.8-2.7,11.2-9.5,11.2
	C286.1,409.3,283.8,404.7,283.8,398.6z M299.8,398.3c0-6.1-2.3-8.2-6.3-8.2c-4.1,0-6.9,2.5-6.9,8.3s2.2,8.5,6.7,8.5
	C297.3,407,299.8,404.6,299.8,398.3L299.8,398.3z M307.3,398.6c0-7.2,3.6-10.8,9.8-10.8c3.8-0.3,7.2,2.5,7.5,6.3c0,0.2,0,0.4,0,0.6
	l-2.7,0.4c-0.4-3.3-1.9-4.9-5.1-4.9c-3.2,0-6.7,1.8-6.7,8.1c0,6.8,3.3,8.6,6.7,8.6c2.7,0.3,5.1-1.6,5.4-4.3c0-0.1,0-0.2,0-0.2
	l2.6,0.5c-0.6,4-4.2,6.8-8.2,6.4C309.8,409.3,307.3,404.9,307.3,398.6z M347.2,408.8h-2.7v-13.6c0-3.1-1.1-5-4.3-5
	c-2.6,0.2-5,1.2-6.9,2.9v15.7h-2.7v-30.4h2.7v12.4c2.2-1.8,4.8-2.8,7.6-2.9c4.4,0,6.3,2.5,6.3,7.1V408.8z M367.8,394l-2.7,0.3
	c-0.5-2.7-1.3-4.2-4.7-4.2c-3.6,0-4.4,1.6-4.4,3.3c0,2.4,1.8,3,4.9,3.7c3.8,0.9,7.2,1.7,7.2,6.2c0,3.6-2.7,5.9-7.7,5.9
	c-4.5,0-7.4-1.7-8-6.2l2.6-0.4c0.2,2.6,2.5,4.6,5.2,4.4c0.1,0,0.3,0,0.4,0c2.7,0,4.8-0.8,4.8-3.4c0-2.4-1.7-2.9-4.7-3.7
	c-3.4-0.9-7.5-1.4-7.5-6.1c0-4,3.4-5.9,7.3-5.9c3.5-0.5,6.7,1.9,7.2,5.3C367.8,393.5,367.8,393.7,367.8,394z M372.6,398.6
	c0-7.2,3.6-10.8,9.8-10.8c3.8-0.3,7.2,2.5,7.5,6.3c0,0.2,0,0.4,0,0.6l-2.7,0.4c-0.4-3.3-1.9-4.9-5.1-4.9c-3.2,0-6.7,1.8-6.7,8.1
	c0,6.8,3.3,8.6,6.7,8.6c2.7,0.3,5.1-1.6,5.4-4.3c0-0.1,0-0.2,0-0.2l2.6,0.5c-0.6,4-4.2,6.8-8.2,6.4
	C375.1,409.3,372.6,404.9,372.6,398.6z M412.5,408.8h-2.7v-13.6c0-3.1-1.1-5-4.3-5c-2.6,0.2-5,1.2-6.9,2.9v15.7h-2.7v-30.4h2.7v12.4
	c2.2-1.8,4.8-2.8,7.6-2.9c4.4,0,6.3,2.5,6.3,7.1L412.5,408.8z M419.6,388.2h2.7v13.6c0,3.1,1,5,4.2,5c2.6-0.2,5-1.2,6.9-2.9v-15.7
	h2.7v20.6h-2.4l-0.2-2.6c-2.2,1.8-4.9,2.8-7.8,3c-4.4,0-6.2-2.5-6.2-7.1V388.2z M446.1,408.8h-2.7v-30.4h2.7V408.8z M451.9,398.5
	c-0.8-5.1,2.7-9.8,7.8-10.6c0.6-0.1,1.2-0.1,1.8-0.1c5.7,0,8,3.8,8,8.7c0,0.8-0.1,1.6-0.2,2.5h-14.5c0.2,6.2,3,7.8,6.7,7.8
	c2.5,0.4,4.8-1.4,5.2-3.9c0,0,0,0,0,0l2.6,0.5c-0.8,3.7-4.2,6.2-8,5.8C454,409.3,451.9,404.2,451.9,398.5z M466.6,396.9
	c0.1-4.2-1.5-6.7-5.4-6.7c-3.5-0.1-6.4,2.6-6.5,6.1c0,0.2,0,0.4,0,0.6H466.6z"/>
</svg>
